<svg width="932" height="320" viewBox="0 0 932 320" fill="none" xmlns="http://www.w3.org/2000/svg">
<path d="M441.171 107.52C457.851 107.52 470.631 111.6 479.511 119.76C488.511 127.8 493.011 138.6 493.011 152.16C493.011 159.72 491.391 167.16 488.151 174.48C485.031 181.8 479.691 187.62 472.131 191.94L502.911 240H472.491L444.591 197.88H427.131V240H401.031V107.52H441.171ZM445.671 172.68C450.951 172.68 455.031 171.6 457.911 169.44C460.911 167.16 463.011 164.52 464.211 161.52C465.411 158.4 466.011 155.58 466.011 153.06C466.011 151.62 465.771 149.82 465.291 147.66C464.931 145.38 464.091 143.1 462.771 140.82C461.451 138.54 459.411 136.62 456.651 135.06C454.011 133.5 450.411 132.72 445.851 132.72H427.131V172.68H445.671ZM548.01 242.16C540.69 242.16 534.03 240.72 528.03 237.84C522.15 234.84 517.47 230.28 513.99 224.16C510.51 218.04 508.77 210.24 508.77 200.76C508.77 191.88 510.57 184.2 514.17 177.72C517.77 171.24 522.51 166.26 528.39 162.78C534.27 159.18 540.51 157.38 547.11 157.38C554.91 157.38 560.79 158.64 564.75 161.16C568.83 163.68 572.07 166.44 574.47 169.44L576.09 161.34H599.49V240H574.29V230.28C573.09 231.48 571.29 233.04 568.89 234.96C566.61 236.88 563.73 238.56 560.25 240C556.77 241.44 552.69 242.16 548.01 242.16ZM555.21 221.64C563.97 221.64 570.33 217.68 574.29 209.76V190.5C572.85 186.66 570.33 183.6 566.73 181.32C563.25 179.04 559.11 177.9 554.31 177.9C548.91 177.9 544.23 179.94 540.27 184.02C536.31 187.98 534.33 193.14 534.33 199.5C534.33 203.7 535.29 207.48 537.21 210.84C539.13 214.2 541.65 216.84 544.77 218.76C548.01 220.68 551.49 221.64 555.21 221.64ZM671.716 242.16C665.716 242.16 660.556 241.26 656.236 239.46C652.036 237.66 648.376 235.2 645.256 232.08V240H620.056V97.98H645.076V166.74C648.196 164.1 652.336 161.88 657.496 160.08C662.656 158.28 668.536 157.38 675.136 157.38C681.976 157.38 688.216 159 693.856 162.24C699.496 165.48 703.996 170.22 707.356 176.46C710.836 182.58 712.576 190.08 712.576 198.96C712.576 207.84 710.656 215.52 706.816 222C703.096 228.48 698.116 233.46 691.876 236.94C685.636 240.42 678.916 242.16 671.716 242.16ZM666.136 220.92C669.856 220.92 673.276 219.96 676.396 218.04C679.636 216.12 682.216 213.48 684.136 210.12C686.056 206.76 687.016 202.98 687.016 198.78C687.016 194.58 686.056 190.86 684.136 187.62C682.216 184.38 679.636 181.86 676.396 180.06C673.276 178.14 669.856 177.18 666.136 177.18C661.216 177.18 656.896 178.32 653.176 180.6C649.456 182.88 646.816 185.94 645.256 189.78V209.04C649.576 216.96 656.536 220.92 666.136 220.92ZM778.64 242.16C772.64 242.16 767.48 241.26 763.16 239.46C758.96 237.66 755.3 235.2 752.18 232.08V240H726.98V97.98H752V166.74C755.12 164.1 759.26 161.88 764.42 160.08C769.58 158.28 775.46 157.38 782.06 157.38C788.9 157.38 795.14 159 800.78 162.24C806.42 165.48 810.92 170.22 814.28 176.46C817.76 182.58 819.5 190.08 819.5 198.96C819.5 207.84 817.58 215.52 813.74 222C810.02 228.48 805.04 233.46 798.8 236.94C792.56 240.42 785.84 242.16 778.64 242.16ZM773.06 220.92C776.78 220.92 780.2 219.96 783.32 218.04C786.56 216.12 789.14 213.48 791.06 210.12C792.98 206.76 793.94 202.98 793.94 198.78C793.94 194.58 792.98 190.86 791.06 187.62C789.14 184.38 786.56 181.86 783.32 180.06C780.2 178.14 776.78 177.18 773.06 177.18C768.14 177.18 763.82 178.32 760.1 180.6C756.38 182.88 753.74 185.94 752.18 189.78V209.04C756.5 216.96 763.46 220.92 773.06 220.92ZM840.204 277.8L859.104 235.86L822.744 161.34H851.004L871.704 207.78L892.584 161.34H915.264L864.504 277.8H840.204Z" fill="#8697FF"/>
<path d="M310.086 178.941C322 152.322 263.102 77.9513 206.835 46.9671C171.368 22.9641 134.411 26.2617 126.927 36.8008C110.5 59.93 181.318 79.5284 228.68 102.398C218.499 106.821 208.905 114.758 203.263 124.908C185.606 105.627 146.852 89.0245 101.378 102.398C70.7337 111.411 45.266 132.658 35.4229 164.749C33.0312 163.686 30.3832 163.095 27.5972 163.095C16.9436 163.095 8.30721 171.733 8.30721 182.389C8.30721 193.044 16.9436 201.682 27.5972 201.682C29.5719 201.682 35.7462 200.357 35.7462 200.357L134.411 201.073C94.953 263.68 63.7697 272.832 63.7697 283.679C63.7697 294.525 93.6066 291.586 104.81 287.543C158.44 268.189 216.042 207.869 225.926 190.505C267.434 195.685 302.318 196.298 310.086 178.941Z" fill="url(#paint0_linear)"/>
<path fill-rule="evenodd" clip-rule="evenodd" d="M228.676 102.401C228.679 102.403 228.681 102.404 228.684 102.405C230.879 101.54 230.524 98.297 229.921 95.7505C228.536 89.8972 204.63 66.2872 182.182 55.7122C151.593 41.3023 129.068 42.0452 125.74 48.6868C131.971 61.4595 160.858 73.4516 191.027 85.9761C203.898 91.3196 217.002 96.76 228.681 102.399C228.679 102.4 228.678 102.401 228.676 102.401Z" fill="url(#paint1_linear)"/>
<path fill-rule="evenodd" clip-rule="evenodd" d="M189.858 230.954C183.672 228.59 176.684 226.421 168.74 224.452C177.211 209.292 178.988 186.849 170.988 172.659C159.761 152.745 145.667 142.146 112.916 142.146C94.9037 142.146 46.4053 148.215 45.5443 188.707C45.454 192.956 45.5421 196.849 45.8495 200.43L134.411 201.072C122.472 220.016 111.29 234.066 101.5 244.75C113.254 247.762 122.954 250.291 131.859 252.613C140.308 254.816 148.042 256.832 156.137 258.898C168.348 250 179.827 240.298 189.858 230.954Z" fill="url(#paint2_linear)"/>
<path d="M34.2412 196.269C37.859 227.03 55.3377 239.085 91.0535 242.652C126.769 246.22 147.257 243.826 174.532 246.308C197.312 248.381 217.652 259.992 225.198 255.98C231.989 252.369 228.189 239.323 219.102 230.953C207.324 220.103 191.022 212.56 162.337 209.883C168.054 194.228 166.452 172.279 157.574 160.337C144.737 143.07 121.042 135.263 91.0536 138.674C59.7223 142.238 29.7008 157.666 34.2412 196.269Z" fill="url(#paint3_linear)"/>
<defs>
<linearGradient id="paint0_linear" x1="97.8096" y1="155.368" x2="307.526" y2="214.829" gradientUnits="userSpaceOnUse">
<stop stop-color="#8697FF"/>
<stop offset="1" stop-color="#ABB7FF"/>
</linearGradient>
<linearGradient id="paint1_linear" x1="272.208" y1="151.38" x2="120.865" y2="-0.3058" gradientUnits="userSpaceOnUse">
<stop stop-color="#8697FF"/>
<stop offset="1" stop-color="#5156D8" stop-opacity="0"/>
</linearGradient>
<linearGradient id="paint2_linear" x1="194.068" y1="236.239" x2="48.6999" y2="152.677" gradientUnits="userSpaceOnUse">
<stop stop-color="#465EED"/>
<stop offset="1" stop-color="#8697FF" stop-opacity="0"/>
</linearGradient>
<linearGradient id="paint3_linear" x1="110.33" y1="153.803" x2="208.601" y2="278.644" gradientUnits="userSpaceOnUse">
<stop stop-color="#8898FF"/>
<stop offset="0.983895" stop-color="#6277F1"/>
</linearGradient>
</defs>
</svg>
