<svg width="932" height="320" viewBox="0 0 932 320" fill="none" xmlns="http://www.w3.org/2000/svg">
<path d="M441.171 107.52C457.851 107.52 470.631 111.6 479.511 119.76C488.511 127.8 493.011 138.6 493.011 152.16C493.011 159.72 491.391 167.16 488.151 174.48C485.031 181.8 479.691 187.62 472.131 191.94L502.911 240H472.491L444.591 197.88H427.131V240H401.031V107.52H441.171ZM445.671 172.68C450.951 172.68 455.031 171.6 457.911 169.44C460.911 167.16 463.011 164.52 464.211 161.52C465.411 158.4 466.011 155.58 466.011 153.06C466.011 151.62 465.771 149.82 465.291 147.66C464.931 145.38 464.091 143.1 462.771 140.82C461.451 138.54 459.411 136.62 456.651 135.06C454.011 133.5 450.411 132.72 445.851 132.72H427.131V172.68H445.671ZM548.01 242.16C540.69 242.16 534.03 240.72 528.03 237.84C522.15 234.84 517.47 230.28 513.99 224.16C510.51 218.04 508.77 210.24 508.77 200.76C508.77 191.88 510.57 184.2 514.17 177.72C517.77 171.24 522.51 166.26 528.39 162.78C534.27 159.18 540.51 157.38 547.11 157.38C554.91 157.38 560.79 158.64 564.75 161.16C568.83 163.68 572.07 166.44 574.47 169.44L576.09 161.34H599.49V240H574.29V230.28C573.09 231.48 571.29 233.04 568.89 234.96C566.61 236.88 563.73 238.56 560.25 240C556.77 241.44 552.69 242.16 548.01 242.16ZM555.21 221.64C563.97 221.64 570.33 217.68 574.29 209.76V190.5C572.85 186.66 570.33 183.6 566.73 181.32C563.25 179.04 559.11 177.9 554.31 177.9C548.91 177.9 544.23 179.94 540.27 184.02C536.31 187.98 534.33 193.14 534.33 199.5C534.33 203.7 535.29 207.48 537.21 210.84C539.13 214.2 541.65 216.84 544.77 218.76C548.01 220.68 551.49 221.64 555.21 221.64ZM671.716 242.16C665.716 242.16 660.556 241.26 656.236 239.46C652.036 237.66 648.376 235.2 645.256 232.08V240H620.056V97.98H645.076V166.74C648.196 164.1 652.336 161.88 657.496 160.08C662.656 158.28 668.536 157.38 675.136 157.38C681.976 157.38 688.216 159 693.856 162.24C699.496 165.48 703.996 170.22 707.356 176.46C710.836 182.58 712.576 190.08 712.576 198.96C712.576 207.84 710.656 215.52 706.816 222C703.096 228.48 698.116 233.46 691.876 236.94C685.636 240.42 678.916 242.16 671.716 242.16ZM666.136 220.92C669.856 220.92 673.276 219.96 676.396 218.04C679.636 216.12 682.216 213.48 684.136 210.12C686.056 206.76 687.016 202.98 687.016 198.78C687.016 194.58 686.056 190.86 684.136 187.62C682.216 184.38 679.636 181.86 676.396 180.06C673.276 178.14 669.856 177.18 666.136 177.18C661.216 177.18 656.896 178.32 653.176 180.6C649.456 182.88 646.816 185.94 645.256 189.78V209.04C649.576 216.96 656.536 220.92 666.136 220.92ZM778.64 242.16C772.64 242.16 767.48 241.26 763.16 239.46C758.96 237.66 755.3 235.2 752.18 232.08V240H726.98V97.98H752V166.74C755.12 164.1 759.26 161.88 764.42 160.08C769.58 158.28 775.46 157.38 782.06 157.38C788.9 157.38 795.14 159 800.78 162.24C806.42 165.48 810.92 170.22 814.28 176.46C817.76 182.58 819.5 190.08 819.5 198.96C819.5 207.84 817.58 215.52 813.74 222C810.02 228.48 805.04 233.46 798.8 236.94C792.56 240.42 785.84 242.16 778.64 242.16ZM773.06 220.92C776.78 220.92 780.2 219.96 783.32 218.04C786.56 216.12 789.14 213.48 791.06 210.12C792.98 206.76 793.94 202.98 793.94 198.78C793.94 194.58 792.98 190.86 791.06 187.62C789.14 184.38 786.56 181.86 783.32 180.06C780.2 178.14 776.78 177.18 773.06 177.18C768.14 177.18 763.82 178.32 760.1 180.6C756.38 182.88 753.74 185.94 752.18 189.78V209.04C756.5 216.96 763.46 220.92 773.06 220.92ZM840.204 277.8L859.104 235.86L822.744 161.34H851.004L871.704 207.78L892.584 161.34H915.264L864.504 277.8H840.204Z" fill="white"/>
<path d="M310.081 178.941C321.995 152.322 263.099 77.9536 206.833 46.9703C171.367 22.9679 134.412 26.2654 126.927 36.8043C110.501 59.9329 181.317 79.5307 228.678 102.4C218.497 106.823 208.903 114.759 203.262 124.909C185.605 105.629 146.852 89.0266 101.379 102.4C70.7356 111.412 45.2687 132.659 35.4259 164.749C33.0342 163.686 30.3863 163.095 27.6004 163.095C16.9471 163.095 8.3109 171.733 8.3109 182.388C8.3109 193.043 16.9471 201.681 27.6004 201.681C29.575 201.681 35.7491 200.356 35.7491 200.356L134.412 201.072C94.9543 263.677 63.7719 272.829 63.7719 283.676C63.7719 294.522 93.6079 291.583 104.811 287.54C158.44 268.186 216.04 207.868 225.924 190.505C267.431 195.684 302.314 196.297 310.081 178.941Z" fill="url(#paint0_linear)"/>
<path fill-rule="evenodd" clip-rule="evenodd" d="M228.673 102.403C228.676 102.405 228.679 102.406 228.681 102.407C230.876 101.542 230.521 98.2992 229.918 95.7527C228.533 89.8996 204.628 66.2902 182.18 55.7155C151.594 41.3069 129.071 42.0488 125.741 48.6891C131.971 61.4618 160.857 73.4537 191.026 85.9782C203.897 91.3215 217.001 96.7618 228.679 102.401C228.677 102.402 228.675 102.403 228.673 102.403Z" fill="url(#paint1_linear)"/>
<path fill-rule="evenodd" clip-rule="evenodd" d="M189.857 230.953C183.671 228.588 176.684 226.419 168.739 224.45C177.21 209.291 178.987 186.849 170.988 172.659C159.76 152.746 145.667 142.147 112.918 142.147C94.9053 142.147 46.4082 148.215 45.5472 188.706C45.4569 192.955 45.545 196.849 45.8525 200.429L134.412 201.071C122.472 220.015 111.291 234.064 101.501 244.747C113.255 247.76 122.954 250.289 131.859 252.61C140.308 254.813 148.042 256.83 156.136 258.896C168.347 249.998 179.826 240.296 189.857 230.953Z" fill="url(#paint2_linear)"/>
<path d="M34.2438 196.269C37.8616 227.028 55.3397 239.083 91.0546 242.65C126.769 246.218 147.256 243.824 174.531 246.306C197.31 248.379 217.65 259.989 225.195 255.977C231.986 252.366 228.187 239.321 219.1 230.951C207.321 220.102 191.02 212.559 162.336 209.882C168.053 194.228 166.451 172.279 157.573 160.337C144.736 143.071 121.042 135.265 91.0546 138.675C59.7242 142.239 29.7036 157.666 34.2438 196.269Z" fill="url(#paint3_linear)"/>
<defs>
<linearGradient id="paint0_linear" x1="97.8108" y1="155.368" x2="307.522" y2="214.828" gradientUnits="userSpaceOnUse">
<stop stop-color="white"/>
<stop offset="1" stop-color="white"/>
</linearGradient>
<linearGradient id="paint1_linear" x1="272.204" y1="151.381" x2="120.865" y2="-0.300019" gradientUnits="userSpaceOnUse">
<stop stop-color="#8697FF"/>
<stop offset="1" stop-color="#8697FF" stop-opacity="0"/>
</linearGradient>
<linearGradient id="paint2_linear" x1="194.067" y1="236.237" x2="48.7027" y2="152.678" gradientUnits="userSpaceOnUse">
<stop stop-color="#8697FF"/>
<stop offset="1" stop-color="#8697FF" stop-opacity="0"/>
</linearGradient>
<linearGradient id="paint3_linear" x1="110.33" y1="153.803" x2="208.599" y2="278.641" gradientUnits="userSpaceOnUse">
<stop stop-color="white"/>
<stop offset="0.983895" stop-color="#D1D8FF"/>
</linearGradient>
</defs>
</svg>
