<svg width="320" height="320" viewBox="0 0 320 320" fill="none" xmlns="http://www.w3.org/2000/svg">
<path d="M310.137 178.941C322.052 152.322 263.146 77.9536 206.87 46.9703C171.398 22.9679 134.436 26.2654 126.95 36.8043C110.521 59.9329 181.35 79.5307 228.719 102.4C218.536 106.823 208.941 114.759 203.298 124.909C185.638 105.629 146.878 89.0266 101.397 102.4C70.7483 111.412 45.2768 132.659 35.4322 164.749C33.0401 163.686 30.3917 163.095 27.6053 163.095C16.9501 163.095 8.31238 171.733 8.31238 182.388C8.31238 193.043 16.9501 201.681 27.6053 201.681C29.5803 201.681 35.7555 200.356 35.7555 200.356L134.436 201.071C94.9713 263.677 63.7833 272.829 63.7833 283.676C63.7833 294.522 93.6247 291.583 104.829 287.54C158.468 268.186 216.078 207.868 225.964 190.505C267.479 195.684 302.368 196.297 310.137 178.941Z" fill="url(#paint0_linear)"/>
<path fill-rule="evenodd" clip-rule="evenodd" d="M228.714 102.403C228.717 102.405 228.719 102.406 228.722 102.407C230.918 101.542 230.562 98.2992 229.96 95.7527C228.574 89.8996 204.665 66.2902 182.213 55.7155C151.621 41.3069 129.094 42.0488 125.764 48.6891C131.995 61.4618 160.886 73.4537 191.06 85.9782C203.933 91.3215 217.04 96.7617 228.72 102.401C228.718 102.402 228.716 102.403 228.714 102.403Z" fill="url(#paint1_linear)"/>
<path fill-rule="evenodd" clip-rule="evenodd" d="M189.891 230.953C183.704 228.588 176.715 226.419 168.77 224.45C177.242 209.291 179.019 186.849 171.018 172.659C159.789 152.746 145.693 142.147 112.938 142.147C94.9223 142.147 46.4165 148.215 45.5554 188.706C45.4651 192.955 45.5531 196.849 45.8607 200.429L134.436 201.071C122.494 220.015 111.311 234.064 101.52 244.747C113.275 247.76 122.976 250.289 131.883 252.61C140.333 254.813 148.069 256.83 156.164 258.896C168.377 249.998 179.859 240.296 189.891 230.953Z" fill="url(#paint2_linear)"/>
<path d="M34.2499 196.269C37.8684 227.028 55.3496 239.083 91.0709 242.65C126.792 246.218 147.282 243.824 174.562 246.306C197.345 248.379 217.688 259.989 225.235 255.977C232.027 252.366 228.227 239.321 219.139 230.951C207.359 220.102 191.054 212.559 162.365 209.882C168.083 194.228 166.481 172.279 157.601 160.337C144.762 143.071 121.064 135.265 91.0709 138.675C59.7349 142.239 29.7089 157.666 34.2499 196.269Z" fill="url(#paint3_linear)"/>
<defs>
<linearGradient id="paint0_linear" x1="97.8283" y1="155.368" x2="307.571" y2="214.848" gradientUnits="userSpaceOnUse">
<stop stop-color="white"/>
<stop offset="1" stop-color="white"/>
</linearGradient>
<linearGradient id="paint1_linear" x1="272.252" y1="151.381" x2="120.914" y2="-0.327151" gradientUnits="userSpaceOnUse">
<stop stop-color="#7258DC"/>
<stop offset="1" stop-color="#797DEA" stop-opacity="0"/>
</linearGradient>
<linearGradient id="paint2_linear" x1="194.102" y1="236.237" x2="48.7243" y2="152.655" gradientUnits="userSpaceOnUse">
<stop stop-color="#7461EA"/>
<stop offset="1" stop-color="#BFC2FF" stop-opacity="0"/>
</linearGradient>
<linearGradient id="paint3_linear" x1="110.35" y1="153.803" x2="208.614" y2="278.659" gradientUnits="userSpaceOnUse">
<stop stop-color="white"/>
<stop offset="0.983895" stop-color="#D5CEFF"/>
</linearGradient>
</defs>
</svg>
